#!OML:ASF Y:\EmotionMaleHayes\Project 1\Capture day 1\Session 1\Male1.ASF
:FULLY-SPECIFIED
:DEGREES
1226
root 47.9823 16.6325 5.51471 536.582 0.527655 542.04
lowerback 9.89939 0.3141 0.0609589
upperback 3.47113 0.800654 1.66579
thorax -1.96693 0.534842 1.59238
lowerneck -23.1846 2.85757 4.80645
upperneck 27.9512 1.74725 -0.994106
head 13.36 0.848002 -0.95713
rclavicle 3.42904e-015 1.41137e-014
rhumerus -33.5009 0.0363064 -83.5726
rradius 31.1553
rwrist 9.0347
rhand -11.2952 -31.7493
rfingers 7.12502
rthumb 14.7361 -61.2055
lclavicle 3.42904e-015 1.41137e-014
lhumerus -42.1696 -12.3445 92.3261
lradius 23.2343
lwrist -15.0256
lhand -0.134735 -15.2263
lfingers 7.12502
lthumb 25.4613 13.0929
rfemur -8.77238 0.653066 23.7419
rtibia 22.2043
rfoot -15.0986 -3.60047
rtoes 10.5642
lfemur 8.89531 0.640515 -17.2604
ltibia 52.2357
lfoot 6.41289 -5.63565
ltoes 12.6034
1227
root 48.0124 16.6584 5.38043 536.551 0.489643 542.416
lowerback 9.96337 0.372288 0.528753
upperback 3.44034 0.929664 1.72833
thorax -2.03242 0.602147 1.37795
lowerneck -23.3996 2.74477 4.93519
upperneck 28.0173 1.52856 -1.00597
head 13.4266 0.767414 -1.02228
rclavicle 1.3418e-015 1.98785e-016
rhumerus -32.8934 0.487583 -83.7371
rradius 31.6417
rwrist 8.53153
rhand -11.1713 -31.6218
rfingers 7.12502
rthumb 14.8555 -61.0692
lclavicle 1.3418e-015 1.98785e-016
lhumerus -38.8115 7.85689 79.8347
lradius 16.0988
lwrist -40.0688
lhand -0.163823 -20.7481
lfingers 7.12502
lthumb 25.4335 7.57506
rfemur -7.78055 0.281101 24.1903
rtibia 21.4562
rfoot -15.3351 -3.31192
rtoes 9.94568
lfemur 7.27084 1.02566 -16.5174
ltibia 54.0366
lfoot 5.45951 -4.82467
ltoes 13.9757
1228
root 48.0358 16.6844 5.24478 536.489 0.515645 542.676
lowerback 9.98289 0.417833 0.789907
upperback 3.46187 1.0288 1.86508
thorax -2.02145 0.655924 1.36095
lowerneck -23.2286 2.64062 4.74519
upperneck 27.7833 1.43379 -0.862901
head 13.2863 0.729319 -0.949215
rclavicle -7.05686e-015 -2.88238e-014
rhumerus -32.1882 1.2674 -83.7915
rradius 32.1457
rwrist 7.93157
rhand -11.0388 -31.5132
rfingers 7.12502
rthumb 14.9831 -60.9512
lclavicle -7.05686e-015 -2.88238e-014
lhumerus -39.3483 9.69372 78.274
lradius 15.5426
lwrist -43.6551
lhand 0.8127 -21.2548
lfingers 7.12502
lthumb 26.3686 6.93182
rfemur -6.71078 -0.0803016 24.4959
rtibia 20.6484
rfoot -15.4775 -3.03334
rtoes 8.28459
lfemur 5.70898 1.53688 -15.9473
ltibia 55.5804
lfoot 4.47631 -3.97196
ltoes 12.4869
1229
root 48.0599 16.712 5.1098 536.438 0.615751 542.965
lowerback 9.96257 0.492054 1.00524
upperback 3.5136 1.1646 2.03371
thorax -1.95894 0.729373 1.39935
lowerneck -22.8494 2.56148 4.44428
upperneck 27.6407 1.45568 -0.86635
head 13.1451 0.702482 -0.897545
rclavicle 8.64713e-015 3.65764e-014
rhumerus -31.4749 2.16698 -83.8013
rradius 32.7436
rwrist 7.09524
rhand -11.1361 -31.6453
rfingers 7.12502
rthumb 14.8893 -61.0902
lclavicle 8.64713e-015 3.65764e-014
lhumerus -40.2686 14.8811 74.6148
lradius 14.9334
lwrist -50.8996
lhand 1.58779 -21.4225
lfingers 7.12502
lthumb 27.1103 6.65072
rfemur -5.70942 -0.506947 24.8166
rtibia 19.9278
rfoot -15.6524 -2.60104
rtoes 7.00013
lfemur 4.21168 2.08204 -15.3969
ltibia 56.9375
lfoot 3.46459 -3.14768
ltoes 10.3042
1230
root 48.0875 16.7396 4.97788 536.352 0.666418 543.083
lowerback 10.0464 0.576893 1.16048
upperback 3.53351 1.30006 2.04454
thorax -1.98395 0.79979 1.30652
lowerneck -22.0385 2.46115 3.87003
upperneck 27.1819 1.4394 -0.447079
head 12.7801 0.689617 -0.643192
rclavicle -7.7526e-015 -9.93923e-015
rhumerus -30.8059 2.86662 -83.9014
rradius 33.2829
rwrist 6.44468
rhand -11.1954 -31.8446
rfingers 7.12502
rthumb 14.8322 -61.2938
lclavicle -7.7526e-015 -9.93923e-015
lhumerus -40.7597 13.4167 74.9734
lradius 15.4549
lwrist -50.1372
lhand 3.28825 -21.5997
lfingers 7.12502
lthumb 28.736 6.20912
rfemur -4.64086 -0.697 24.9933
rtibia 19.1534
rfoot -15.8988 -2.39922
rtoes 6.297
lfemur 2.64069 2.84428 -14.8647
ltibia 58.2551
lfoot 2.56367 -2.7547
ltoes 10.2103
1231
root 48.1143 16.7672 4.84747 536.265 0.691741 543.05
lowerback 10.1352 0.666031 1.17009
upperback 3.546 1.42201 2.00394
thorax -2.02035 0.861371 1.24352
lowerneck -23.0466 2.42829 4.5018
upperneck 27.8556 1.21774 -0.872937
head 13.2681 0.601177 -0.954135
rclavicle -6.08778e-015 -1.98785e-016
rhumerus -30.163 3.63199 -84.0012
rradius 33.8343
rwrist 5.7917
rhand -11.1781 -31.8106
rfingers 7.12502
rthumb 14.8489 -61.2586
lclavicle -6.08778e-015 -1.98785e-016
lhumerus -41.0366 13.4001 74.4294
lradius 15.3728
lwrist -51.0886
lhand 3.43384 -21.1174
lfingers 7.12502
lthumb 28.875 6.66777
rfemur -3.53845 -0.576719 25.0486
rtibia 18.3583
rfoot -16.1463 -2.39642
rtoes 6.36501
lfemur 1.05742 3.20134 -14.803
ltibia 59.437
lfoot 1.48653 -1.96276
ltoes 10.086
1232
root 48.1422 16.7959 4.71624 536.191 0.773151 542.992
lowerback 10.1771 0.771046 1.0447
upperback 3.55833 1.55074 2.00239
thorax -2.0354 0.925396 1.29669
lowerneck -23.6758 2.36515 4.92345
upperneck 28.2948 1.0041 -1.16577
head 13.5815 0.512846 -1.18278
rclavicle -2.93207e-015 -2.40529e-014
rhumerus -29.5769 4.60815 -84.0605
rradius 34.4671
rwrist 4.98525
rhand -11.2397 -31.5822
rfingers 7.12502
rthumb 14.7896 -61.0345
lclavicle -2.93207e-015 -2.40529e-014
lhumerus -40.6064 9.06917 77.1271
lradius 15.4805
lwrist -46.4107
lhand 3.53975 -21.3354
lfingers 7.12502
lthumb 28.9762 6.4325
rfemur -2.49853 -0.692461 24.9955
rtibia 17.61
rfoot -16.2968 -2.05487
rtoes 6.66639
lfemur -0.486508 3.76584 -14.6491
ltibia 60.2638
lfoot 0.551102 -1.33813
ltoes 7.74379
1233
root 48.1747 16.824 4.58474 536.11 0.908289 542.987
lowerback 10.2293 0.88029 0.89461
upperback 3.55651 1.68425 2.04332
thorax -2.07321 0.991551 1.4066
lowerneck -22.8287 2.36365 4.56532
upperneck 27.9289 1.11827 -0.963252
head 13.2518 0.544526 -1.02135
rclavicle 1.17034e-014 3.04141e-014
rhumerus -28.9044 5.2988 -84.0012
rradius 34.8842
rwrist 4.79426
rhand -11.044 -31.2416
rfingers 7.12502
rthumb 14.9781 -60.6799
lclavicle 1.17034e-014 3.04141e-014
lhumerus -41.0567 8.18002 77.5221
lradius 15.6794
lwrist -45.1354
lhand 3.25963 -21.39
lfingers 7.12502
lthumb 28.7086 6.42353
rfemur -1.45235 -1.00847 24.9787
rtibia 16.8021
rfoot -16.3694 -1.57984
rtoes 6.40682
lfemur -1.89155 4.18047 -14.5625
ltibia 60.8083
lfoot -0.525883 -0.854433
ltoes 4.41569
1234
root 48.2031 16.8507 4.45335 536.026 1.10765 543.238
lowerback 10.3018 0.971585 1.05972
upperback 3.59113 1.83445 2.11881
thorax -2.07764 1.0706 1.3729
lowerneck -22.2643 2.25424 4.16155
upperneck 27.5506 1.03527 -0.599143
head 12.9708 0.514098 -0.824685
rclavicle -6.98231e-015 1.45113e-014
rhumerus -28.0723 5.82093 -83.9827
rradius 35.1748
rwrist 4.71077
rhand -11.0447 -31.2448
rfingers 7.12502
rthumb 14.9774 -60.6831
lclavicle -6.98231e-015 1.45113e-014
lhumerus -41.2299 8.23571 77.1601
lradius 15.6702
lwrist -44.7808
lhand 2.81495 -21.2602
lfingers 7.12502
lthumb 28.2837 6.62444
rfemur -0.369308 -1.08025 25.3471
rtibia 15.9526
rfoot -16.4374 -1.22317
rtoes 6.94987
lfemur -3.20189 4.62898 -14.1795
ltibia 61.1293
lfoot -1.59622 -0.722137
ltoes 2.59752
1235
root 48.2218 16.8745 4.3229 535.923 1.33901 543.489
lowerback 10.4106 1.07307 1.44407
upperback 3.65866 2.02015 2.09393
thorax -2.05727 1.16955 1.10734
lowerneck -22.5083 2.27006 4.33368
upperneck 27.746 1.02546 -0.76111
head 13.1035 0.505812 -0.919297
rclavicle -1.54804e-014 -2.98177e-015
rhumerus -27.2459 6.50851 -84.0958
rradius 35.5798
rwrist 4.17352
rhand -11.3817 -31.49
rfingers 7.12502
rthumb 14.6528 -60.9523
lclavicle -1.54804e-014 -2.98177e-015
lhumerus -42.1016 4.68256 78.5056
lradius 17.0138
lwrist -40.3511
lhand 2.40496 -21.2011
lfingers 7.12502
lthumb 27.8918 6.7479
rfemur 0.70351 -1.01463 25.7265
rtibia 15.1515
rfoot -16.4997 -0.943224
rtoes 7.56705
lfemur -4.50941 5.08751 -13.7915
ltibia 61.3332
lfoot -2.63138 -0.932818
ltoes 3.95107
